# xmcd CD database file
#
# Track frame offsets:
#	150
#	26163
#	58882
#	62308
#	115684
#	148457
#	178661
#	213718
#
# Disc length: 3179 seconds
#
# Revision: 0
# Processed by: cddbd v1.5.1PL0 Copyright (c) Steve Scherf et al.
# Submitted via: CDex 1.51
#
DISCID=7c0c6908
DTITLE=David Grisman and Martin Taylor Quartet - Live at the King Kat Theater [CD1]
DYEAR=1999
DGENRE=Jazz
TTITLE0=Beginning to See the Light
TTITLE1=Autumn Leaves
TTITLE2=Intros
TTITLE3=Bag's Groove
TTITLE4=East of the Sun
TTITLE5=In a Sentimental Mood
TTITLE6=Exactly Like You
TTITLE7=(Sonny Rollins Tune)
EXTD=YEAR: 1999
EXTT0=
EXTT1=
EXTT2=
EXTT3=
EXTT4=
EXTT5=
EXTT6=
EXTT7=
PLAYORDER=
